Patient4_TMGait_0pt2_02_left_05_EMG.mot
version=1
nRows=29
nColumns=33
inDegrees=no
endheader
time	1LAddLong	2LGlutMax	3LGlutMed	4LIliopsoas	5LSemiMemb	6LBicFemLong	7LRecFem	8LVastMed	9LVastLat	10LGasMed	11LTibAnt	12lTibPost	13LPeroneusLong	14LSol	15LExtDigLong	16LFlexDigLong	17RAddLong	18RGlutMax	19RGlutMed	20RIliopsoas	21RSemiMemb	22RBicFemLong	23RRecFem	24RVastMed	25RVastLat	26RGasMed	27RTibAnt	28RTibPost	29RPeroneusLong	30RSol	31RExtDigLong	32RFlexDigLong
12.695	0.014954	0.037842	-0.024719	0.003204	0.005493	-0.01709	-0.021515	0.006714	-0.041504	0.013275	-0.000916	0.007935	0.024719	-0.12863	-0.048218	0.00351	0.029907	0.028992	0.43366	0.24414	0.19806	0.001373	-0.007477	0.005646	0.15411	-0.007477	0.029602	0.005188	0.005951	0.014191	-0.000916	-0.012054
12.696	0.011597	0.045471	-0.000305	0.015259	0.008698	0.006714	0.016022	-0.004272	-0.001831	0.014954	0.005951	0.003052	0.019226	-0.09552	-0.015717	0.00061	0.00946	-0.011597	0.11719	0.31036	0.18585	-0.004578	-0.041962	-0.032501	0.12695	-0.002899	0.010834	0.003662	0.032654	-0.003204	-0.000305	-0.02121
12.697	0.008087	-0.004425	0.001831	-0.002594	-0.002594	0.014343	0.037994	-0.006256	0.01709	0.012054	0.006561	0.004272	0.013733	0.006561	0.006866	-0.004425	0.000458	-0.039368	-0.18036	0.13702	0.058289	0.059967	-0.062714	0.028839	0.055084	0	0.009918	0.003204	0.016937	-0.011444	-0.000916	-0.016174
12.698	0.011139	-0.000305	-0.077515	0.000916	0.006409	0.052795	-0.005798	0.002441	0.035095	0.00824	-0.001068	0.000458	0.013733	0.038147	0.031891	0.007935	-0.003052	-0.015411	0.053253	0.053253	0.059662	0.058594	-0.015717	-0.029449	-0.035248	0.00061	0.015259	0.005798	0.022583	0.004578	0.001373	-0.011902
12.699	0.005493	-0.001068	-0.031281	-0.009613	0.00885	0.075378	-0.018768	0.000305	0.004272	0.002594	-0.000153	0.006104	0.015717	0.041046	-0.007782	0.001984	-0.005493	0.064545	0.20828	-0.074615	0.098114	0.048828	-0.006561	-0.02121	-0.091705	0.00412	0.019073	0.005646	0.007324	-0.001068	-0.001678	-0.006409
12.7	-0.00824	0.026855	-0.083771	0.003357	0.004425	0.007324	-0.024719	-0.012665	-0.030975	-0.009766	-0.002136	0.005188	0.019379	0.021667	-0.029907	-0.01236	-0.022583	0.026703	-0.33661	-0.04776	0.112	0.0737	0.042114	-0.049591	-0.11643	0.001984	0.026398	0.008087	-0.022125	-0.013885	-0.001068	-0.016937
12.701	0.010223	0.010376	-0.029755	0.003967	0.00351	-0.049744	-0.011444	-0.005951	0.000916	-0.003662	-0.008545	0.000153	-0.001373	0.007629	-0.009003	-0.004272	-0.009613	0.028076	-0.32806	-0.036926	0.097809	0.072632	0.005798	-0.035248	-0.058594	0.005951	0.040894	0.006409	-0.063019	-0.037994	0.005951	-0.008392
12.702	0.007172	0.003204	-0.016937	0.007019	0.00412	0.048828	-0.007477	-0.000916	0.033722	-0.00351	0.007935	0.007935	0.011902	0.020599	0.012512	-0.009766	0.002289	0.005646	-0.057831	-0.046539	0.10193	0.063782	0.045624	-0.10346	-0.00061	-0.002136	-0.000153	0.005493	0.035553	-0.029755	-0.002136	-0.009003
12.703	0.00885	-0.027618	0.007782	0	-0.002289	0.04776	-0.014343	-0.002747	0.0383	-0.010986	0.011444	0.00351	0.019531	0.019531	0.010071	0.003357	0.029602	0.019684	-0.005035	-0.080414	0.10742	0.06958	0.1062	-0.029907	-0.019226	-0.010681	0.012207	0.003967	-0.016937	-0.020447	-0.00061	-0.010376
12.704	0.01236	0.024719	-0.05188	0.014191	-0.003204	0.098114	0.005646	0.007172	0.013275	0.018463	0.02533	0.002136	0.008698	0.039368	0.009918	0.00061	0.033875	0.050507	-0.31128	-0.17624	0.10498	0.049133	0.13092	-0.067139	-0.047455	-0.010223	0.029144	0.008698	0.018768	-0.02655	-0.001221	-0.00824
12.705	0.018158	0.06958	-0.031738	0.010376	-0.016022	0.14023	-0.012665	0.005341	0.020447	0.058136	0.018616	0.010986	0.029449	0.043945	0.007477	0.016174	0.048065	0.015259	-0.37033	-0.11032	0.103	0.046082	0.14847	-0.080566	-0.1152	-0.012054	0.025482	0.005035	0.068359	-0.021667	-0.000458	-0.009613
12.706	0.018616	0.032654	-0.085907	0.009003	-0.027161	0.22095	0.011597	0.008545	0.015869	0.088196	0.00351	0.012054	-0.013885	0.048065	-0.023193	-0.003052	0.044708	0.036926	-0.29511	0.030823	0.10162	0.052185	0.084229	-0.044403	-0.11871	-0.010376	0.026703	0.007019	0.037537	-0.031738	-0.001221	-0.00824
12.707	0.009155	0.007477	-0.11963	0.014496	-0.014191	0.049286	0.00946	-0.002594	0.017853	0.10925	0.008392	0.009308	-0.043182	0.068207	-0.038147	0.011139	0.023804	-0.007172	-0.012054	0.1831	0.10635	0.051575	-0.020599	-0.041351	-0.079651	-0.008392	0.014801	0.0177	0.010223	-0.007782	0.001068	-0.005341
12.708	0.010681	0.012665	-0.067749	-0.000916	-0.023651	-0.025787	0.010071	0.007782	0.023499	0.10666	0.001678	0.001678	-0.037079	0.067902	-0.021667	0.007019	0.03952	-0.050354	-0.23529	0.18356	0.092316	0.054321	-0.13321	-0.039825	0.000153	-0.008392	0.020447	0.004425	-0.033875	-0.015564	-0.002899	-0.001526
12.709	0.001831	0.000763	0.083466	0.006561	-0.033569	-0.16785	0.013885	-0.001526	0.014648	-0.047607	0.00061	0.003815	-0.097504	0.057678	-0.003052	0.01236	0.020599	-0.018463	-0.19333	0.036316	0.11627	0.047302	-0.14923	-0.065155	0.07431	-0.006714	0.02182	0.009003	-0.016479	0.002441	-0.002289	-0.002899
12.71	0.008545	0.003204	0.085754	0.0177	0.02243	-0.30289	0.038757	0.016937	0.014648	-0.15198	0.007019	0.002747	-0.088959	0.032349	0.006561	0.008698	0.007019	-0.019836	-0.31937	-0.2301	0.10651	0.037689	-0.042114	-0.033417	0.084686	-0.013123	-0.001373	0.003357	0.017853	0.03479	-0.004425	-0.00885
12.711	-0.009003	0.019836	0.02121	0.011139	0.063324	-0.20508	0.06897	0.012054	0.003052	-0.16693	0.001526	-0.006256	-0.043793	0.054169	0.003204	0.007019	0.014343	0.023804	-0.27054	-0.43304	0.11124	0.037231	0.018005	-0.045624	0.057068	0.001526	0.012512	-0.000458	0.039215	0.016327	-0.007324	-0.002899
12.712	-0.002747	0.037079	0.030823	0.004272	0.034943	-0.087891	0.039673	0.009308	0.010223	-0.2739	0.016174	0.002441	-0.007172	0.068207	0.011902	0.017242	0.007935	0.005188	-0.25345	-0.59067	0.11292	0.036469	-0.040741	-0.006561	0.072479	-0.00885	-0.000763	0.00412	0.049133	-0.002136	-0.002289	-0.012207
12.713	0.003357	0.023804	-0.014496	0.007629	0.038452	-0.027161	0.03952	0.008545	0.020447	-0.24078	-0.009613	0.004425	0.0354	0.087433	0.018311	0.026093	-0.003815	-0.023041	-0.31357	-0.4863	0.10223	0.048676	-0.027313	0.04425	0.098114	-0.004272	0.033112	0.007172	0.011749	0.003204	-0.002136	-0.011292
12.714	0.011139	0.039825	-0.036011	0.015564	0.023956	-0.059052	0.025482	0.005035	0.019989	-0.10895	-0.011292	0.00351	0.066071	0.11444	-0.007935	0.02533	-0.016327	-0.058899	-0.68451	0.054474	0.10162	0.066681	0.003204	0.001068	0.077209	-0.000153	0.000153	0.003662	0.024567	0.026855	0.002594	-0.016022
12.715	0.019684	0.027008	-0.03952	0.009003	0.029755	-0.056152	0.020294	0.005646	0.027924	-0.13794	-0.005035	0.008698	0.14954	0.026245	-0.024567	-0.054626	-0.023804	-0.034332	-0.14816	0.4985	0.10101	0.039825	0.018158	-0.005035	0.047302	-0.001373	0.005035	-0.001373	-0.050507	0.021667	0	-0.010376
12.716	0.020752	0.060577	0.081482	-0.007324	0.046234	-0.01236	0.036774	0.001831	0.016022	-0.16815	-0.011444	0.001526	0.1886	-0.059509	-0.016174	-0.13229	-0.012054	-0.007019	0.4512	0.7312	0.11154	0.048218	0.07431	0.003052	0.046387	0.002594	0.037994	0.001984	-0.18967	0.003204	-0.001221	-0.016327
12.717	0.016479	0.057373	0.075836	0.010986	0.007019	-0.005035	0.032806	0.004883	0.011902	-0.096436	-0.005341	0.010681	0.17319	-0.083008	-0.018311	-0.010834	-0.024414	0.054779	0.71121	0.54413	0.11276	0.045776	0.031281	0.015106	0.019836	0.005188	0.019073	0.004272	-0.13779	-0.000305	-0.004272	-0.014801
12.718	0.009613	0.066681	0.006714	0.00473	0.001678	0.015564	0.023193	0.008545	0.014954	-0.032959	-0.00061	0.003204	0.10971	-0.32898	-0.008545	0.000916	-0.022888	0.037231	0.20813	0.31082	0.096436	0.041199	-0.11551	0.050049	0.077362	0.002594	-0.018616	0.001984	0.015717	0.005951	-0.002594	-0.011597
12.719	0.004883	0.079956	0.044556	-0.006561	-0.019073	0.031891	0.005493	0.008698	0.019684	0.041046	0.005188	0.002441	-0.028839	-0.22751	-0.00946	-0.033569	-0.023651	-0.01297	0.22492	0.13901	0.097046	0.032654	-0.16769	0.061798	0.11154	-0.006409	0.033875	0.005035	-0.067902	-0.00946	-0.002136	-0.009766
12.72	-0.000305	0.037231	0.012512	-0.002136	-0.024261	0.049133	0.007935	0.012207	0.024567	0.401	-0.001373	0.011444	-0.048218	-0.014038	-0.012512	0.50934	0.001221	-0.049591	-0.071869	0.027618	0.072174	0.029907	-0.19867	0.01236	0.052185	-0.007019	0.051575	0.014038	-0.074921	-0.054169	0.001984	-0.011749
12.721	-0.001373	0.019684	-0.001221	0.009003	-0.074158	0.072937	0.038147	0.010529	0.02243	0.32272	0.00061	0.029755	-0.024414	-0.16159	-0.011444	-0.1329	0.002289	-0.029297	-0.052338	-0.030518	0.047455	0.025024	-0.16846	0.019379	-0.016937	-0.002136	-0.006409	0.004883	-0.02655	-0.050507	0.00061	-0.014191
12.722	-0.003204	0.016022	-0.079803	-0.006714	-0.06424	0.084991	0.02243	0.007172	0.020905	-0.032501	0.003815	-0.001068	-0.031433	-0.078888	-0.010071	-0.12894	0.023804	-0.048828	-0.080109	-0.065765	0.047455	0.007782	-0.077515	0.008545	0.001831	-0.011597	-0.065765	0.000458	0.065308	-0.023499	-0.001831	-0.006256
12.723	0.003357	0.053101	-0.089569	0.016022	0.00351	0.064087	0.022888	0.006866	0.005798	-0.1329	0.007935	-0.01236	0.007629	0.074768	0.014343	-0.065613	0.015869	-0.011902	-0.036163	-0.073242	0.061035	0.000916	-0.08606	0.004578	0.016022	-0.009918	-0.067902	0.001984	0.08194	-0.036011	-0.000305	-0.001831
